<svg xmlns="http://www.w3.org/2000/svg" viewBox="0 0 288 288" role="img" aria-label="Assistant">
  <title>Assistant</title>
  <defs>
    <linearGradient id="av-bg" x1="18%" y1="12%" x2="88%" y2="92%">
      <stop offset="0%" stop-color="#67e8f9"/>
      <stop offset="50%" stop-color="#0891b2"/>
      <stop offset="100%" stop-color="#0e7490"/>
    </linearGradient>
    <linearGradient id="av-face" x1="30%" y1="20%" x2="70%" y2="85%">
      <stop offset="0%" stop-color="#ffffff"/>
      <stop offset="100%" stop-color="#ecfeff"/>
    </linearGradient>
    <filter id="av-soft" x="-20%" y="-20%" width="140%" height="140%">
      <feGaussianBlur in="SourceAlpha" stdDeviation="2" result="b"/>
      <feOffset dx="0" dy="2" in="b" result="o"/>
      <feComponentTransfer in="o" result="a">
        <feFuncA type="linear" slope="0.22"/>
      </feComponentTransfer>
      <feMerge>
        <feMergeNode in="a"/>
        <feMergeNode in="SourceGraphic"/>
      </feMerge>
    </filter>
  </defs>
  <circle cx="144" cy="144" r="144" fill="url(#av-bg)"/>
  <circle
    cx="144"
    cy="144"
    r="132"
    fill="none"
    stroke="rgba(255,255,255,0.22)"
    stroke-width="3"
  />
  <g filter="url(#av-soft)">
    <ellipse cx="144" cy="158" rx="88" ry="76" fill="url(#av-face)"/>
  </g>
  <ellipse cx="72" cy="148" rx="22" ry="28" fill="#ffffff" opacity="0.95"/>
  <ellipse cx="216" cy="148" rx="22" ry="28" fill="#ffffff" opacity="0.95"/>
  <line
    x1="144"
    y1="62"
    x2="144"
    y2="96"
    stroke="#ffffff"
    stroke-width="8"
    stroke-linecap="round"
  />
  <circle cx="144" cy="52" r="14" fill="#cffafe" stroke="#0891b2" stroke-width="3"/>
  <ellipse cx="118" cy="150" rx="14" ry="18" fill="#164E63"/>
  <ellipse cx="170" cy="150" rx="14" ry="18" fill="#164E63"/>
  <ellipse cx="122" cy="144" rx="5" ry="6" fill="#ffffff" opacity="0.9"/>
  <ellipse cx="174" cy="144" rx="5" ry="6" fill="#ffffff" opacity="0.9"/>
  <path
    d="M 118 182 Q 144 204 170 182"
    fill="none"
    stroke="#164E63"
    stroke-width="6"
    stroke-linecap="round"
  />
  <g transform="translate(198, 168) rotate(-12)">
    <ellipse cx="0" cy="0" rx="26" ry="22" fill="#ffffff" stroke="#a5f3fc" stroke-width="3"/>
    <path
      d="M -8 -6 L -14 -18 M 0 -8 L 0 -22 M 8 -6 L 14 -18"
      fill="none"
      stroke="#0891b2"
      stroke-width="4"
      stroke-linecap="round"
    />
  </g>
  <circle cx="144" cy="188" r="10" fill="#22d3ee" opacity="0.55"/>
</svg>
